<svg xmlns="http://www.w3.org/2000/svg" xmlns:xlink="http://www.w3.org/1999/xlink" width="500" zoomAndPan="magnify" viewBox="0 0 375 374.999991" height="500" preserveAspectRatio="xMidYMid meet" version="1.0"><defs><g/></defs><g fill="#000000" fill-opacity="1"><g transform="translate(182.475578, 193.129382)"><g><path d="M 5.203125 0.140625 C 4.328125 0.140625 3.546875 -0.00390625 2.859375 -0.296875 C 2.179688 -0.597656 1.640625 -1.007812 1.234375 -1.53125 C 0.835938 -2.0625 0.617188 -2.648438 0.578125 -3.296875 L 3.625 -3.296875 C 3.65625 -2.941406 3.8125 -2.65625 4.09375 -2.4375 C 4.382812 -2.226562 4.742188 -2.125 5.171875 -2.125 C 5.546875 -2.125 5.835938 -2.195312 6.046875 -2.34375 C 6.265625 -2.5 6.375 -2.695312 6.375 -2.9375 C 6.375 -3.21875 6.222656 -3.425781 5.921875 -3.5625 C 5.617188 -3.707031 5.132812 -3.863281 4.46875 -4.03125 C 3.75 -4.195312 3.144531 -4.375 2.65625 -4.5625 C 2.175781 -4.75 1.765625 -5.039062 1.421875 -5.4375 C 1.078125 -5.84375 0.90625 -6.390625 0.90625 -7.078125 C 0.90625 -7.648438 1.0625 -8.171875 1.375 -8.640625 C 1.695312 -9.117188 2.164062 -9.492188 2.78125 -9.765625 C 3.394531 -10.046875 4.128906 -10.1875 4.984375 -10.1875 C 6.242188 -10.1875 7.234375 -9.875 7.953125 -9.25 C 8.679688 -8.625 9.101562 -7.796875 9.21875 -6.765625 L 6.375 -6.765625 C 6.320312 -7.117188 6.164062 -7.394531 5.90625 -7.59375 C 5.65625 -7.800781 5.316406 -7.90625 4.890625 -7.90625 C 4.535156 -7.90625 4.257812 -7.832031 4.0625 -7.6875 C 3.875 -7.550781 3.78125 -7.363281 3.78125 -7.125 C 3.78125 -6.84375 3.929688 -6.628906 4.234375 -6.484375 C 4.546875 -6.335938 5.023438 -6.191406 5.671875 -6.046875 C 6.410156 -5.859375 7.015625 -5.671875 7.484375 -5.484375 C 7.953125 -5.296875 8.363281 -4.992188 8.71875 -4.578125 C 9.070312 -4.160156 9.253906 -3.609375 9.265625 -2.921875 C 9.265625 -2.328125 9.097656 -1.796875 8.765625 -1.328125 C 8.441406 -0.867188 7.96875 -0.507812 7.34375 -0.25 C 6.726562 0.0078125 6.015625 0.140625 5.203125 0.140625 Z M 5.203125 0.140625 "/></g></g></g></svg>