<svg xmlns="http://www.w3.org/2000/svg" xmlns:xlink="http://www.w3.org/1999/xlink" width="500" zoomAndPan="magnify" viewBox="0 0 375 374.999991" height="500" preserveAspectRatio="xMidYMid meet" version="1.0"><defs><g/></defs><rect x="-37.5" width="450" fill="#ffffff" y="-37.499999" height="449.999989" fill-opacity="1"/><rect x="-37.5" width="450" fill="#ffffff" y="-37.499999" height="449.999989" fill-opacity="1"/><g fill="#ffffff" fill-opacity="1"><g transform="translate(131.154781, 193.129382)"><g><path d="M 5.203125 0.140625 C 4.328125 0.140625 3.546875 -0.00390625 2.859375 -0.296875 C 2.179688 -0.597656 1.640625 -1.007812 1.234375 -1.53125 C 0.835938 -2.0625 0.617188 -2.648438 0.578125 -3.296875 L 3.625 -3.296875 C 3.65625 -2.941406 3.8125 -2.65625 4.09375 -2.4375 C 4.382812 -2.226562 4.742188 -2.125 5.171875 -2.125 C 5.546875 -2.125 5.835938 -2.195312 6.046875 -2.34375 C 6.265625 -2.5 6.375 -2.695312 6.375 -2.9375 C 6.375 -3.21875 6.222656 -3.425781 5.921875 -3.5625 C 5.617188 -3.707031 5.132812 -3.863281 4.46875 -4.03125 C 3.75 -4.195312 3.144531 -4.375 2.65625 -4.5625 C 2.175781 -4.75 1.765625 -5.039062 1.421875 -5.4375 C 1.078125 -5.84375 0.90625 -6.390625 0.90625 -7.078125 C 0.90625 -7.648438 1.0625 -8.171875 1.375 -8.640625 C 1.695312 -9.117188 2.164062 -9.492188 2.78125 -9.765625 C 3.394531 -10.046875 4.128906 -10.1875 4.984375 -10.1875 C 6.242188 -10.1875 7.234375 -9.875 7.953125 -9.25 C 8.679688 -8.625 9.101562 -7.796875 9.21875 -6.765625 L 6.375 -6.765625 C 6.320312 -7.117188 6.164062 -7.394531 5.90625 -7.59375 C 5.65625 -7.800781 5.316406 -7.90625 4.890625 -7.90625 C 4.535156 -7.90625 4.257812 -7.832031 4.0625 -7.6875 C 3.875 -7.550781 3.78125 -7.363281 3.78125 -7.125 C 3.78125 -6.84375 3.929688 -6.628906 4.234375 -6.484375 C 4.546875 -6.335938 5.023438 -6.191406 5.671875 -6.046875 C 6.410156 -5.859375 7.015625 -5.671875 7.484375 -5.484375 C 7.953125 -5.296875 8.363281 -4.992188 8.71875 -4.578125 C 9.070312 -4.160156 9.253906 -3.609375 9.265625 -2.921875 C 9.265625 -2.328125 9.097656 -1.796875 8.765625 -1.328125 C 8.441406 -0.867188 7.96875 -0.507812 7.34375 -0.25 C 6.726562 0.0078125 6.015625 0.140625 5.203125 0.140625 Z M 5.203125 0.140625 "/></g></g></g><g fill="#ffffff" fill-opacity="1"><g transform="translate(141.198756, 193.129382)"><g><path d="M 11.03125 -10.046875 L 11.03125 0 L 7.953125 0 L 7.953125 -1.375 C 7.640625 -0.925781 7.21875 -0.566406 6.6875 -0.296875 C 6.15625 -0.0234375 5.5625 0.109375 4.90625 0.109375 C 4.144531 0.109375 3.46875 -0.0625 2.875 -0.40625 C 2.289062 -0.75 1.835938 -1.242188 1.515625 -1.890625 C 1.191406 -2.535156 1.03125 -3.296875 1.03125 -4.171875 L 1.03125 -10.046875 L 4.09375 -10.046875 L 4.09375 -4.59375 C 4.09375 -3.914062 4.265625 -3.390625 4.609375 -3.015625 C 4.953125 -2.648438 5.421875 -2.46875 6.015625 -2.46875 C 6.609375 -2.46875 7.078125 -2.648438 7.421875 -3.015625 C 7.773438 -3.390625 7.953125 -3.914062 7.953125 -4.59375 L 7.953125 -10.046875 Z M 11.03125 -10.046875 "/></g></g></g><g fill="#ffffff" fill-opacity="1"><g transform="translate(153.330717, 193.129382)"><g><path d="M 13.9375 -10.15625 C 15.175781 -10.15625 16.164062 -9.773438 16.90625 -9.015625 C 17.644531 -8.265625 18.015625 -7.21875 18.015625 -5.875 L 18.015625 0 L 14.953125 0 L 14.953125 -5.453125 C 14.953125 -6.097656 14.78125 -6.597656 14.4375 -6.953125 C 14.101562 -7.304688 13.632812 -7.484375 13.03125 -7.484375 C 12.425781 -7.484375 11.953125 -7.304688 11.609375 -6.953125 C 11.273438 -6.597656 11.109375 -6.097656 11.109375 -5.453125 L 11.109375 0 L 8.046875 0 L 8.046875 -5.453125 C 8.046875 -6.097656 7.875 -6.597656 7.53125 -6.953125 C 7.1875 -7.304688 6.71875 -7.484375 6.125 -7.484375 C 5.519531 -7.484375 5.046875 -7.304688 4.703125 -6.953125 C 4.359375 -6.597656 4.1875 -6.097656 4.1875 -5.453125 L 4.1875 0 L 1.109375 0 L 1.109375 -10.046875 L 4.1875 -10.046875 L 4.1875 -8.78125 C 4.5 -9.195312 4.90625 -9.53125 5.40625 -9.78125 C 5.914062 -10.03125 6.488281 -10.15625 7.125 -10.15625 C 7.882812 -10.15625 8.5625 -9.992188 9.15625 -9.671875 C 9.75 -9.347656 10.210938 -8.882812 10.546875 -8.28125 C 10.890625 -8.832031 11.363281 -9.28125 11.96875 -9.625 C 12.570312 -9.976562 13.226562 -10.15625 13.9375 -10.15625 Z M 13.9375 -10.15625 "/></g></g></g><g fill="#ffffff" fill-opacity="1"><g transform="translate(172.392659, 193.129382)"><g><path d="M 6.71875 -2.609375 L 6.71875 0 L 5.140625 0 C 4.023438 0 3.15625 -0.269531 2.53125 -0.8125 C 1.914062 -1.363281 1.609375 -2.253906 1.609375 -3.484375 L 1.609375 -7.484375 L 0.375 -7.484375 L 0.375 -10.046875 L 1.609375 -10.046875 L 1.609375 -12.484375 L 4.6875 -12.484375 L 4.6875 -10.046875 L 6.703125 -10.046875 L 6.703125 -7.484375 L 4.6875 -7.484375 L 4.6875 -3.453125 C 4.6875 -3.148438 4.753906 -2.929688 4.890625 -2.796875 C 5.035156 -2.671875 5.273438 -2.609375 5.609375 -2.609375 Z M 6.71875 -2.609375 "/></g></g></g><g fill="#ffffff" fill-opacity="1"><g transform="translate(179.700638, 193.129382)"><g><path d="M 11.375 -10.046875 L 5.078125 4.765625 L 1.765625 4.765625 L 4.0625 -0.34375 L -0.015625 -10.046875 L 3.421875 -10.046875 L 5.734375 -3.765625 L 8.046875 -10.046875 Z M 11.375 -10.046875 "/></g></g></g><g fill="#ffffff" fill-opacity="1"><g transform="translate(191.076602, 193.129382)"><g><path d="M 13.9375 -10.15625 C 15.175781 -10.15625 16.164062 -9.773438 16.90625 -9.015625 C 17.644531 -8.265625 18.015625 -7.21875 18.015625 -5.875 L 18.015625 0 L 14.953125 0 L 14.953125 -5.453125 C 14.953125 -6.097656 14.78125 -6.597656 14.4375 -6.953125 C 14.101562 -7.304688 13.632812 -7.484375 13.03125 -7.484375 C 12.425781 -7.484375 11.953125 -7.304688 11.609375 -6.953125 C 11.273438 -6.597656 11.109375 -6.097656 11.109375 -5.453125 L 11.109375 0 L 8.046875 0 L 8.046875 -5.453125 C 8.046875 -6.097656 7.875 -6.597656 7.53125 -6.953125 C 7.1875 -7.304688 6.71875 -7.484375 6.125 -7.484375 C 5.519531 -7.484375 5.046875 -7.304688 4.703125 -6.953125 C 4.359375 -6.597656 4.1875 -6.097656 4.1875 -5.453125 L 4.1875 0 L 1.109375 0 L 1.109375 -10.046875 L 4.1875 -10.046875 L 4.1875 -8.78125 C 4.5 -9.195312 4.90625 -9.53125 5.40625 -9.78125 C 5.914062 -10.03125 6.488281 -10.15625 7.125 -10.15625 C 7.882812 -10.15625 8.5625 -9.992188 9.15625 -9.671875 C 9.75 -9.347656 10.210938 -8.882812 10.546875 -8.28125 C 10.890625 -8.832031 11.363281 -9.28125 11.96875 -9.625 C 12.570312 -9.976562 13.226562 -10.15625 13.9375 -10.15625 Z M 13.9375 -10.15625 "/></g></g></g><g fill="#ffffff" fill-opacity="1"><g transform="translate(210.138544, 193.129382)"><g><path d="M 10.578125 -5.1875 C 10.578125 -4.894531 10.5625 -4.59375 10.53125 -4.28125 L 3.5625 -4.28125 C 3.613281 -3.65625 3.816406 -3.175781 4.171875 -2.84375 C 4.523438 -2.519531 4.957031 -2.359375 5.46875 -2.359375 C 6.238281 -2.359375 6.773438 -2.679688 7.078125 -3.328125 L 10.34375 -3.328125 C 10.175781 -2.671875 9.875 -2.078125 9.4375 -1.546875 C 9 -1.015625 8.445312 -0.597656 7.78125 -0.296875 C 7.125 -0.00390625 6.390625 0.140625 5.578125 0.140625 C 4.597656 0.140625 3.722656 -0.0664062 2.953125 -0.484375 C 2.179688 -0.898438 1.578125 -1.5 1.140625 -2.28125 C 0.710938 -3.0625 0.5 -3.972656 0.5 -5.015625 C 0.5 -6.066406 0.710938 -6.976562 1.140625 -7.75 C 1.566406 -8.53125 2.164062 -9.128906 2.9375 -9.546875 C 3.707031 -9.972656 4.585938 -10.1875 5.578125 -10.1875 C 6.546875 -10.1875 7.410156 -9.984375 8.171875 -9.578125 C 8.929688 -9.171875 9.519531 -8.585938 9.9375 -7.828125 C 10.363281 -7.078125 10.578125 -6.195312 10.578125 -5.1875 Z M 7.4375 -6 C 7.4375 -6.519531 7.253906 -6.9375 6.890625 -7.25 C 6.535156 -7.5625 6.085938 -7.71875 5.546875 -7.71875 C 5.023438 -7.71875 4.585938 -7.566406 4.234375 -7.265625 C 3.878906 -6.972656 3.660156 -6.550781 3.578125 -6 Z M 7.4375 -6 "/></g></g></g><g fill="#ffffff" fill-opacity="1"><g transform="translate(221.226506, 193.129382)"><g><path d="M 2.5625 0.140625 C 2.019531 0.140625 1.578125 -0.015625 1.234375 -0.328125 C 0.890625 -0.648438 0.71875 -1.046875 0.71875 -1.515625 C 0.71875 -1.992188 0.890625 -2.394531 1.234375 -2.71875 C 1.578125 -3.039062 2.019531 -3.203125 2.5625 -3.203125 C 3.082031 -3.203125 3.515625 -3.039062 3.859375 -2.71875 C 4.203125 -2.394531 4.375 -1.992188 4.375 -1.515625 C 4.375 -1.046875 4.203125 -0.648438 3.859375 -0.328125 C 3.515625 -0.015625 3.082031 0.140625 2.5625 0.140625 Z M 2.5625 0.140625 "/></g></g></g><g fill="#ffffff" fill-opacity="1"><g transform="translate(226.302487, 193.129382)"><g><path d="M 0.5 -5.046875 C 0.5 -6.078125 0.691406 -6.976562 1.078125 -7.75 C 1.472656 -8.53125 2.003906 -9.128906 2.671875 -9.546875 C 3.347656 -9.972656 4.101562 -10.1875 4.9375 -10.1875 C 5.644531 -10.1875 6.265625 -10.039062 6.796875 -9.75 C 7.328125 -9.46875 7.738281 -9.09375 8.03125 -8.625 L 8.03125 -10.046875 L 11.109375 -10.046875 L 11.109375 0 L 8.03125 0 L 8.03125 -1.421875 C 7.726562 -0.953125 7.304688 -0.570312 6.765625 -0.28125 C 6.234375 0 5.613281 0.140625 4.90625 0.140625 C 4.09375 0.140625 3.347656 -0.0703125 2.671875 -0.5 C 2.003906 -0.925781 1.472656 -1.53125 1.078125 -2.3125 C 0.691406 -3.09375 0.5 -4.003906 0.5 -5.046875 Z M 8.03125 -5.015625 C 8.03125 -5.785156 7.816406 -6.390625 7.390625 -6.828125 C 6.960938 -7.273438 6.441406 -7.5 5.828125 -7.5 C 5.210938 -7.5 4.691406 -7.28125 4.265625 -6.84375 C 3.847656 -6.40625 3.640625 -5.804688 3.640625 -5.046875 C 3.640625 -4.273438 3.847656 -3.660156 4.265625 -3.203125 C 4.691406 -2.753906 5.210938 -2.53125 5.828125 -2.53125 C 6.441406 -2.53125 6.960938 -2.753906 7.390625 -3.203125 C 7.816406 -3.648438 8.03125 -4.253906 8.03125 -5.015625 Z M 8.03125 -5.015625 "/></g></g></g><g fill="#ffffff" fill-opacity="1"><g transform="translate(238.524456, 193.129382)"><g><path d="M 2.65625 -11.09375 C 2.125 -11.09375 1.6875 -11.25 1.34375 -11.5625 C 1 -11.882812 0.828125 -12.28125 0.828125 -12.75 C 0.828125 -13.226562 1 -13.625 1.34375 -13.9375 C 1.6875 -14.257812 2.125 -14.421875 2.65625 -14.421875 C 3.1875 -14.421875 3.625 -14.257812 3.96875 -13.9375 C 4.3125 -13.625 4.484375 -13.226562 4.484375 -12.75 C 4.484375 -12.28125 4.3125 -11.882812 3.96875 -11.5625 C 3.625 -11.25 3.1875 -11.09375 2.65625 -11.09375 Z M 4.1875 -10.046875 L 4.1875 0 L 1.109375 0 L 1.109375 -10.046875 Z M 4.1875 -10.046875 "/></g></g></g></svg>