<?xml version="1.0" encoding="UTF-8" standalone="no"?>
<!-- Created with Inkscape (http://www.inkscape.org/) -->

<svg
   version="1.1"
   id="svg2"
   width="164.01334"
   height="164.02667"
   viewBox="0 0 164.01334 164.02667"
   sodipodi:docname="Sumtyme_Brandmark_white.eps"
   xmlns:inkscape="http://www.inkscape.org/namespaces/inkscape"
   xmlns:sodipodi="http://sodipodi.sourceforge.net/DTD/sodipodi-0.dtd"
   xmlns="http://www.w3.org/2000/svg"
   xmlns:svg="http://www.w3.org/2000/svg">
  <defs
     id="defs6" />
  <sodipodi:namedview
     id="namedview4"
     pagecolor="#ffffff"
     bordercolor="#000000"
     borderopacity="0.25"
     inkscape:showpageshadow="2"
     inkscape:pageopacity="0.0"
     inkscape:pagecheckerboard="0"
     inkscape:deskcolor="#d1d1d1" />
  <g
     id="g8"
     inkscape:groupmode="layer"
     inkscape:label="ink_ext_XXXXXX"
     transform="matrix(1.3333333,0,0,-1.3333333,0,164.02667)">
    <g
       id="g10"
       transform="scale(0.1)">
      <path
         d="m 385.48,603.613 h -46.976 c -55.508,0 -107.695,21.614 -146.945,60.864 L 33.7266,822.309 c -11.6328,11.636 -11.6407,30.578 -0.0039,42.222 L 365.629,1196.43 c 11.641,11.64 30.578,11.64 42.219,0 L 565.68,1038.6 c 39.25,-39.252 60.867,-91.44 60.867,-146.948 v -50.437 h -20.168 v 50.437 c 0,50.125 -19.516,97.246 -54.957,132.688 L 393.59,1182.17 c -3.777,3.78 -9.926,3.77 -13.703,0 L 47.9844,850.273 c -3.7735,-3.781 -3.7735,-9.925 0,-13.707 L 205.816,678.734 c 35.442,-35.437 82.567,-54.957 132.688,-54.957 h 46.976 v -20.164"
         style="fill:#ffffff;fill-opacity:1;fill-rule:nonzero;stroke:none"
         id="path12" />
      <path
         d="M 786.742,623.777 H 626.547 V 783.969 H 606.379 V 623.777 H 446.188 V 603.613 H 606.379 V 443.418 h 20.168 v 160.195 h 160.195 v 20.164"
         style="fill:#ffffff;fill-opacity:1;fill-rule:nonzero;stroke:none"
         id="path14" />
      <path
         d="m 843.391,25 c -7.973,0 -15.473,3.1094 -21.114,8.75 L 667.25,188.781 c -39.254,39.258 -60.871,91.446 -60.871,146.949 v 49.586 h 20.168 V 335.73 c 0,-50.117 19.519,-97.242 54.961,-132.691 L 836.543,48.0117 c 3.66,-3.6719 10.043,-3.6523 13.703,0 L 1182.15,379.91 c 3.77,3.781 3.77,9.93 0,13.707 l -155.04,155.035 c -35.442,35.438 -82.563,54.961 -132.684,54.961 h -49.86 v 20.164 h 49.86 c 55.508,0 107.694,-21.617 146.944,-60.867 L 1196.4,407.875 c 11.64,-11.637 11.64,-30.574 0.01,-42.223 L 864.504,33.75 C 858.863,28.1094 851.363,25 843.391,25"
         style="fill:#ffffff;fill-opacity:1;fill-rule:nonzero;stroke:none"
         id="path16" />
    </g>
  </g>
</svg>
