<svg xmlns="http://www.w3.org/2000/svg" xmlns:xlink="http://www.w3.org/1999/xlink" width="40" zoomAndPan="magnify" viewBox="0 0 30 30.000001" height="40" preserveAspectRatio="xMidYMid meet" version="1.0"><defs><g/></defs><g fill="#ffffff" fill-opacity="1"><g transform="translate(6.898468, 24.678839)"><g><path d="M 8.390625 0.234375 C 6.972656 0.234375 5.710938 -0.00390625 4.609375 -0.484375 C 3.515625 -0.972656 2.644531 -1.640625 2 -2.484375 C 1.363281 -3.328125 1.003906 -4.269531 0.921875 -5.3125 L 5.828125 -5.3125 C 5.890625 -4.75 6.148438 -4.289062 6.609375 -3.9375 C 7.078125 -3.59375 7.648438 -3.421875 8.328125 -3.421875 C 8.953125 -3.421875 9.429688 -3.539062 9.765625 -3.78125 C 10.109375 -4.03125 10.28125 -4.347656 10.28125 -4.734375 C 10.28125 -5.191406 10.035156 -5.53125 9.546875 -5.75 C 9.066406 -5.976562 8.285156 -6.226562 7.203125 -6.5 C 6.035156 -6.769531 5.066406 -7.054688 4.296875 -7.359375 C 3.523438 -7.660156 2.859375 -8.132812 2.296875 -8.78125 C 1.734375 -9.425781 1.453125 -10.300781 1.453125 -11.40625 C 1.453125 -12.332031 1.707031 -13.175781 2.21875 -13.9375 C 2.726562 -14.707031 3.484375 -15.316406 4.484375 -15.765625 C 5.484375 -16.210938 6.671875 -16.4375 8.046875 -16.4375 C 10.078125 -16.4375 11.675781 -15.929688 12.84375 -14.921875 C 14.019531 -13.910156 14.691406 -12.578125 14.859375 -10.921875 L 10.28125 -10.921875 C 10.195312 -11.472656 9.945312 -11.914062 9.53125 -12.25 C 9.113281 -12.582031 8.566406 -12.75 7.890625 -12.75 C 7.316406 -12.75 6.875 -12.632812 6.5625 -12.40625 C 6.25 -12.1875 6.09375 -11.882812 6.09375 -11.5 C 6.09375 -11.03125 6.335938 -10.679688 6.828125 -10.453125 C 7.328125 -10.222656 8.097656 -9.988281 9.140625 -9.75 C 10.335938 -9.445312 11.3125 -9.144531 12.0625 -8.84375 C 12.820312 -8.539062 13.488281 -8.054688 14.0625 -7.390625 C 14.632812 -6.722656 14.929688 -5.828125 14.953125 -4.703125 C 14.953125 -3.753906 14.6875 -2.90625 14.15625 -2.15625 C 13.625 -1.414062 12.859375 -0.832031 11.859375 -0.40625 C 10.859375 0.0195312 9.703125 0.234375 8.390625 0.234375 Z M 8.390625 0.234375 "/></g></g></g></svg>