<?xml version="1.0" encoding="utf-8"?>
<!-- Generator: Adobe Illustrator 27.0.0, SVG Export Plug-In . SVG Version: 6.00 Build 0)  -->
<svg version="1.1" xmlns="http://www.w3.org/2000/svg" xmlns:xlink="http://www.w3.org/1999/xlink" x="0px" y="0px"
	 viewBox="0 0 500 500" style="enable-background:new 0 0 500 500;" xml:space="preserve">
<g id="Orignal">
</g>
<g id="Vector">
	<path d="M422.9,444v45.2H84.9V444h29c-9-135.1,91.8-191.1,91.8-191.1C101.5,195.8,113.8,62,113.8,62H84.7V16.8h223.8v22.6h-11.1
		c-5,0-9.1,4.1-9.1,9.1v10.2c0,5,4.1,9.1,9.1,9.1h11.1v28.9h30v10.8c0,5,4.1,9.1,9.1,9.1h10.2c5,0,9.1-4.1,9.1-9.1V95.9h26.8
		c-3.6,43.5-20.4,118-91.4,157c0,0,100.8,56,91.8,191.1H422.9z"/>
</g>
</svg>
