<svg width="135" height="111" viewBox="0 0 135 111" fill="none" xmlns="http://www.w3.org/2000/svg">
<path d="M92.6361 72.6992C88.8597 67.2108 84.3277 63.1443 80.1525 60.9543C75.8732 58.7099 72.5599 58.6938 70.5776 60.0578C68.5952 61.4217 67.4261 64.522 67.9929 69.3207C68.546 74.0029 70.7243 79.6889 74.5006 85.1774C78.2769 90.6658 82.8089 94.7322 86.9842 96.9222C91.2636 99.1668 94.5772 99.1836 96.5597 97.8196C98.5421 96.4556 99.7106 93.3547 99.1437 88.5558C98.5906 83.8736 96.4124 78.1876 92.6361 72.6992ZM96.3739 70.1274C100.482 76.0986 102.994 82.473 103.65 88.0241C104.292 93.4584 103.188 98.7647 99.1309 101.557C95.0733 104.348 89.7231 103.482 84.8772 100.941C79.927 98.3443 74.8713 93.7204 70.7628 87.7492C66.6543 81.778 64.1431 75.4043 63.4873 69.8532C62.8454 64.4188 63.9481 59.1119 68.0058 56.32C72.0635 53.5281 77.414 54.3949 82.26 56.9366C87.2101 59.533 92.2654 64.1563 96.3739 70.1274Z" fill="white"/>
<path d="M37.0856 72.6992C40.8619 67.2108 45.394 63.1443 49.5692 60.9543C53.8484 58.7099 57.1618 58.6938 59.1441 60.0578C61.1265 61.4217 62.2956 64.522 61.7288 69.3207C61.1756 74.0029 58.9974 79.6889 55.2211 85.1774C51.4448 90.6658 46.9128 94.7322 42.7375 96.9222C38.4581 99.1668 35.1444 99.1836 33.162 97.8196C31.1796 96.4556 30.011 93.3547 30.5779 88.5558C31.1311 83.8736 33.3093 78.1876 37.0856 72.6992ZM33.3478 70.1274C29.2393 76.0986 26.7276 82.473 26.0718 88.0241C25.43 93.4584 26.5332 98.7647 30.5908 101.557C34.6484 104.348 39.9986 103.482 44.8445 100.941C49.7947 98.3443 54.8504 93.7204 58.9589 87.7492C63.0673 81.778 65.5786 75.4043 66.2343 69.8532C66.8763 64.4188 65.7736 59.1119 61.7159 56.32C57.6582 53.5281 52.3077 54.3949 47.4616 56.9366C42.5115 59.533 37.4563 64.1563 33.3478 70.1274Z" fill="white"/>
<path d="M115.81 65.8357C115.809 62.4176 113.576 58.9754 109.23 56.2712C104.918 53.5877 98.8171 51.8533 91.96 51.8533C85.1029 51.8533 79.0033 53.5877 74.6904 56.2712C70.3444 58.9754 68.1106 62.4175 68.1104 65.8357C68.1104 69.2541 70.3442 72.6968 74.6904 75.4011C79.0033 78.0847 85.1029 79.8191 91.96 79.8191C98.8171 79.8191 104.918 78.0847 109.23 75.4011C113.576 72.6969 115.81 69.254 115.81 65.8357ZM120.347 65.8357C120.347 71.3927 116.734 76.0761 111.627 79.2537C106.487 82.4519 99.5276 84.3562 91.96 84.3562C84.3924 84.3562 77.433 82.4519 72.293 79.2537C67.1863 76.0761 63.5732 71.3926 63.5732 65.8357C63.5734 60.279 67.1864 55.5962 72.293 52.4187C77.433 49.2204 84.3924 47.3162 91.96 47.3162C99.5276 47.3162 106.487 49.2204 111.627 52.4187C116.734 55.5962 120.346 60.2789 120.347 65.8357Z" fill="white"/>
<path d="M13.9131 65.8367C13.9133 69.2548 16.1465 72.697 20.4922 75.4011C24.8051 78.0847 30.9056 79.8191 37.7627 79.8191C44.6197 79.8191 50.7194 78.0847 55.0322 75.4011C59.3782 72.6969 61.6121 69.2549 61.6123 65.8367C61.6123 62.4183 59.3784 58.9755 55.0322 56.2712C50.7194 53.5877 44.6197 51.8533 37.7627 51.8533C30.9056 51.8533 24.8051 53.5877 20.4922 56.2712C16.1462 58.9755 13.9131 62.4184 13.9131 65.8367ZM9.37598 65.8367C9.37598 60.2796 12.9889 55.5963 18.0957 52.4187C23.2358 49.2205 30.1951 47.3162 37.7627 47.3162C45.3303 47.3162 52.2896 49.2204 57.4297 52.4187C62.5364 55.5963 66.1494 60.2797 66.1494 65.8367C66.1492 71.3934 62.5362 76.0762 57.4297 79.2537C52.2896 82.4519 45.3303 84.3562 37.7627 84.3562C30.195 84.3562 23.2358 82.4519 18.0957 79.2537C12.989 76.0762 9.37618 71.3935 9.37598 65.8367Z" fill="white"/>
<path d="M110.697 15.1566C107.798 13.1406 102.88 13.4454 96.6189 16.9942C90.5154 20.4535 83.8423 26.6499 78.1605 34.8188C72.4786 42.9879 68.9906 51.4004 67.8709 58.3263C66.7224 65.4313 68.1475 70.1477 71.0461 72.1638C73.9447 74.1797 78.8615 73.8744 85.1229 70.3257C91.2266 66.8663 97.9007 60.67 103.583 52.5008C109.264 44.3318 112.751 35.9193 113.871 28.9936C115.019 21.8887 113.595 17.1728 110.697 15.1566ZM113.287 11.4319C118.437 15.0139 119.572 22.1634 118.351 29.7172C117.101 37.4501 113.29 46.4901 107.307 55.0915C101.325 63.6929 94.1753 70.4105 87.3605 74.273C80.7034 78.0459 73.6054 79.4704 68.4554 75.8885C63.3053 72.3065 62.1714 65.1564 63.3926 57.6024C64.6427 49.8694 68.4532 40.8295 74.4357 32.2281C80.4183 23.6268 87.5678 16.909 94.3827 13.0466C101.04 9.27383 108.137 7.84995 113.287 11.4319Z" fill="white"/>
<path d="M19.0261 15.1566C21.9247 13.1406 26.8422 13.4454 33.1038 16.9942C39.2073 20.4535 45.8804 26.6499 51.5622 34.8188C57.2441 42.9879 60.7321 51.4004 61.8517 58.3263C63.0003 65.4313 61.5752 70.1477 58.6766 72.1638C55.778 74.1797 50.8612 73.8744 44.5997 70.3257C38.4961 66.8663 31.822 60.67 26.14 52.5008C20.4582 44.3318 16.9714 35.9193 15.8518 28.9936C14.7032 21.8887 16.1276 17.1728 19.0261 15.1566ZM16.4354 11.4319C11.2856 15.0139 10.151 22.1634 11.3721 29.7172C12.6221 37.4501 16.4327 46.4901 22.4152 55.0915C28.3978 63.6929 35.5473 70.4105 42.3622 74.273C49.0193 78.0459 56.1173 79.4704 61.2673 75.8885C66.4173 72.3065 67.5512 65.1564 66.3301 57.6024C65.08 49.8694 61.2695 40.8295 55.2869 32.2281C49.3043 23.6268 42.1548 16.909 35.3399 13.0466C28.6829 9.27383 21.5853 7.84995 16.4354 11.4319Z" fill="white"/>
<path d="M130.375 19.0725H130.365C129.158 19.0725 128.155 18.6706 127.356 17.8668C126.557 17.063 126.155 16.0555 126.155 14.8497C126.155 13.6494 126.557 12.6473 127.356 11.8434C128.155 11.0396 129.158 10.6377 130.365 10.6377C131.571 10.6377 132.579 11.0396 133.384 11.8434C134.188 12.6473 134.59 13.6494 134.59 14.8551C134.59 16.0608 134.188 17.063 133.384 17.8668C132.579 18.6706 131.577 19.0725 130.375 19.0725ZM130.375 18.4134L130.365 18.4187C131.383 18.4187 132.236 18.0758 132.922 17.3952C133.609 16.7146 133.952 15.8679 133.952 14.8497C133.952 13.8316 133.614 12.9849 132.933 12.3097C132.252 11.6344 131.4 11.2968 130.375 11.2968C129.351 11.2968 128.493 11.6344 127.807 12.3097C127.12 12.9849 126.777 13.8316 126.777 14.8497C126.777 15.8679 127.12 16.7146 127.807 17.3952C128.493 18.0758 129.351 18.4134 130.375 18.4134ZM128.686 17.0576V12.5776L130.643 12.5615C131.148 12.5562 131.539 12.6741 131.812 12.9152C132.086 13.1564 132.225 13.4993 132.225 13.9441C132.225 14.5818 131.93 15.0052 131.346 15.2141L132.418 17.0576H131.507L130.531 15.3213H129.464V17.0576H128.686ZM129.464 14.6515L130.584 14.6568C131.158 14.6568 131.442 14.4157 131.442 13.9387C131.442 13.4618 131.158 13.2207 130.584 13.2207H129.464V14.6515Z" fill="white"/>
</svg>
