<svg width="135" height="111" viewBox="0 0 135 111" fill="none" xmlns="http://www.w3.org/2000/svg">
<path d="M92.6371 72.6992C88.8607 67.2108 84.3287 63.1443 80.1534 60.9543C75.8742 58.7099 72.5609 58.6938 70.5785 60.0578C68.5962 61.4217 67.4271 64.522 67.9939 69.3207C68.547 74.0029 70.7253 79.6889 74.5015 85.1774C78.2779 90.6658 82.8099 94.7322 86.9852 96.9222C91.2646 99.1668 94.5782 99.1836 96.5606 97.8196C98.543 96.4556 99.7116 93.3547 99.1447 88.5558C98.5916 83.8736 96.4134 78.1876 92.6371 72.6992ZM96.3749 70.1274C100.483 76.0986 102.995 82.473 103.651 88.0241C104.293 93.4584 103.189 98.7647 99.1319 101.557C95.0743 104.348 89.7241 103.482 84.8781 100.941C79.928 98.3443 74.8722 93.7204 70.7637 87.7492C66.6553 81.778 64.1441 75.4043 63.4883 69.8532C62.8464 64.4188 63.949 59.1119 68.0067 56.32C72.0644 53.5281 77.415 54.3949 82.261 56.9366C87.2111 59.533 92.2664 64.1563 96.3749 70.1274Z" fill="black"/>
<path d="M37.0866 72.6992C40.8629 67.2108 45.3949 63.1443 49.5702 60.9543C53.8494 58.7099 57.1627 58.6938 59.1451 60.0578C61.1275 61.4217 62.2965 64.522 61.7297 69.3207C61.1766 74.0029 58.9984 79.6889 55.2221 85.1774C51.4457 90.6658 46.9138 94.7322 42.7385 96.9222C38.4591 99.1668 35.1454 99.1836 33.163 97.8196C31.1806 96.4556 30.012 93.3547 30.5789 88.5558C31.1321 83.8736 33.3102 78.1876 37.0866 72.6992ZM33.3488 70.1274C29.2403 76.0986 26.7286 82.473 26.0728 88.0241C25.4309 93.4584 26.5342 98.7647 30.5918 101.557C34.6493 104.348 39.9995 103.482 44.8455 100.941C49.7956 98.3443 54.8514 93.7204 58.9599 87.7492C63.0683 81.778 65.5795 75.4043 66.2353 69.8532C66.8773 64.4188 65.7746 59.1119 61.7169 56.32C57.6592 53.5281 52.3087 54.3949 47.4626 56.9366C42.5125 59.533 37.4572 64.1563 33.3488 70.1274Z" fill="black"/>
<path d="M115.81 65.8357C115.809 62.4176 113.576 58.9754 109.23 56.2712C104.918 53.5877 98.8171 51.8533 91.96 51.8533C85.1029 51.8533 79.0033 53.5877 74.6904 56.2712C70.3444 58.9754 68.1106 62.4175 68.1104 65.8357C68.1104 69.2541 70.3442 72.6968 74.6904 75.4011C79.0033 78.0847 85.1029 79.8191 91.96 79.8191C98.8171 79.8191 104.918 78.0847 109.23 75.4011C113.576 72.6969 115.81 69.254 115.81 65.8357ZM120.347 65.8357C120.347 71.3927 116.734 76.0761 111.627 79.2537C106.487 82.4519 99.5276 84.3562 91.96 84.3562C84.3924 84.3562 77.433 82.4519 72.293 79.2537C67.1863 76.0761 63.5732 71.3926 63.5732 65.8357C63.5734 60.279 67.1864 55.5962 72.293 52.4187C77.433 49.2204 84.3924 47.3162 91.96 47.3162C99.5276 47.3162 106.487 49.2204 111.627 52.4187C116.734 55.5962 120.346 60.2789 120.347 65.8357Z" fill="black"/>
<path d="M13.9131 65.8367C13.9133 69.2548 16.1465 72.697 20.4922 75.4011C24.8051 78.0847 30.9056 79.8191 37.7627 79.8191C44.6197 79.8191 50.7194 78.0847 55.0322 75.4011C59.3782 72.6969 61.6121 69.2549 61.6123 65.8367C61.6123 62.4183 59.3784 58.9755 55.0322 56.2712C50.7194 53.5877 44.6197 51.8533 37.7627 51.8533C30.9056 51.8533 24.8051 53.5877 20.4922 56.2712C16.1462 58.9755 13.9131 62.4184 13.9131 65.8367ZM9.37598 65.8367C9.37598 60.2796 12.9889 55.5963 18.0957 52.4187C23.2358 49.2205 30.1951 47.3162 37.7627 47.3162C45.3303 47.3162 52.2896 49.2204 57.4297 52.4187C62.5364 55.5963 66.1494 60.2797 66.1494 65.8367C66.1492 71.3934 62.5362 76.0762 57.4297 79.2537C52.2896 82.4519 45.3303 84.3562 37.7627 84.3562C30.195 84.3562 23.2358 82.4519 18.0957 79.2537C12.989 76.0762 9.37618 71.3935 9.37598 65.8367Z" fill="black"/>
<path d="M110.697 15.1564C107.798 13.1403 102.88 13.4452 96.6189 16.9939C90.5154 20.4533 83.8423 26.6496 78.1605 34.8185C72.4786 42.9877 68.9906 51.4002 67.8709 58.326C66.7224 65.4311 68.1475 70.1474 71.0461 72.1635C73.9447 74.1795 78.8615 73.8741 85.1229 70.3254C91.2266 66.8661 97.9007 60.6698 103.583 52.5006C109.264 44.3315 112.751 35.9191 113.871 28.9933C115.019 21.8884 113.595 17.1725 110.697 15.1564ZM113.287 11.4317C118.437 15.0137 119.572 22.1632 118.351 29.7169C117.101 37.4499 113.29 46.4899 107.307 55.0913C101.325 63.6926 94.1753 70.4102 87.3605 74.2727C80.7034 78.0457 73.6054 79.4701 68.4554 75.8883C63.3053 72.3062 62.1714 65.1561 63.3926 57.6022C64.6427 49.8692 68.4532 40.8292 74.4357 32.2278C80.4183 23.6265 87.5678 16.9088 94.3827 13.0464C101.04 9.27359 108.137 7.8497 113.287 11.4317Z" fill="black"/>
<path d="M19.0261 15.1564C21.9247 13.1403 26.8422 13.4452 33.1038 16.9939C39.2073 20.4533 45.8804 26.6496 51.5622 34.8185C57.2441 42.9877 60.7321 51.4002 61.8517 58.326C63.0003 65.4311 61.5752 70.1474 58.6766 72.1635C55.778 74.1795 50.8612 73.8741 44.5997 70.3254C38.4961 66.8661 31.822 60.6698 26.14 52.5006C20.4582 44.3315 16.9714 35.9191 15.8518 28.9933C14.7032 21.8884 16.1276 17.1725 19.0261 15.1564ZM16.4354 11.4317C11.2856 15.0137 10.151 22.1632 11.3721 29.7169C12.6221 37.4499 16.4327 46.4899 22.4152 55.0913C28.3978 63.6926 35.5473 70.4102 42.3622 74.2727C49.0193 78.0457 56.1173 79.4701 61.2673 75.8883C66.4173 72.3062 67.5512 65.1561 66.3301 57.6022C65.08 49.8692 61.2695 40.8292 55.2869 32.2278C49.3043 23.6265 42.1548 16.9088 35.3399 13.0464C28.6829 9.27359 21.5853 7.8497 16.4354 11.4317Z" fill="black"/>
<path d="M130.375 19.0725H130.365C129.158 19.0725 128.155 18.6706 127.356 17.8668C126.557 17.063 126.155 16.0555 126.155 14.8497C126.155 13.6494 126.557 12.6473 127.356 11.8434C128.155 11.0396 129.158 10.6377 130.365 10.6377C131.571 10.6377 132.579 11.0396 133.384 11.8434C134.188 12.6473 134.59 13.6494 134.59 14.8551C134.59 16.0608 134.188 17.063 133.384 17.8668C132.579 18.6706 131.577 19.0725 130.375 19.0725ZM130.375 18.4134L130.365 18.4187C131.383 18.4187 132.236 18.0758 132.922 17.3952C133.609 16.7146 133.952 15.8679 133.952 14.8497C133.952 13.8316 133.614 12.9849 132.933 12.3097C132.252 11.6344 131.4 11.2968 130.375 11.2968C129.351 11.2968 128.493 11.6344 127.807 12.3097C127.12 12.9849 126.777 13.8316 126.777 14.8497C126.777 15.8679 127.12 16.7146 127.807 17.3952C128.493 18.0758 129.351 18.4134 130.375 18.4134ZM128.686 17.0576V12.5776L130.643 12.5615C131.148 12.5562 131.539 12.6741 131.812 12.9152C132.086 13.1564 132.225 13.4993 132.225 13.9441C132.225 14.5818 131.93 15.0052 131.346 15.2141L132.418 17.0576H131.507L130.531 15.3213H129.464V17.0576H128.686ZM129.464 14.6515L130.584 14.6568C131.158 14.6568 131.442 14.4157 131.442 13.9387C131.442 13.4618 131.158 13.2207 130.584 13.2207H129.464V14.6515Z" fill="black"/>
</svg>
